<?xml version="1.0" encoding="UTF-8"?><svg xmlns="http://www.w3.org/2000/svg" xmlns:latexdraw="http://latexdraw.sourceforge.net/namespaces/latexdraw" version="1.1" baseProfile="full">
    <g>
        <g latexdraw:type="text" id="id858873306" fill="black" latexdraw:position="bl">
            <text x="107.69230769230725" y="219.99999999999994">$c_2$</text>
        </g>
        <g latexdraw:type="joinedLines" id="id1648790536">
            <polyline points="180.5811555391383,200.89512728168188 180.5811555391383,220.89512728168188 380.5811555391383,220.89512728168188 380.5811555391383,200.89512728168188 " stroke-width="2.0" stroke="black" fill="none" latexdraw:rotationAngle="0.0"/>
        </g>
        <g latexdraw:type="joinedLines" id="id1922997926">
            <polyline points="183.40802892415127,199.96489472354233 241.27082505838166,199.96489472354233 241.27082505838166,219.96489472354233 " stroke-width="2.5" stroke="red" fill="none" latexdraw:rotationAngle="0.0"/>
        </g>
        <g latexdraw:type="joinedLines" id="id565829608">
            <polyline points="241.1127605618534,199.86336206387 298.9755566960828,199.86336206387 298.9755566960828,219.86336206387 " stroke-width="2.5" stroke="red" fill="none" latexdraw:rotationAngle="0.0"/>
        </g>
        <g latexdraw:type="joinedLines" id="id1883740597">
            <polyline points="184.5410576160424,219.90735954972763 184.20464601060985,199.59309179359946 " stroke-width="2.5" stroke="red" latexdraw:rotationAngle="0.0"/>
        </g>
        <g latexdraw:type="joinedLines" id="id181513907">
            <polyline points="321.3423823545128,199.30363023902174 379.20517848874306,199.30363023902174 379.20517848874306,221.1392891537505 " stroke-width="2.5" stroke="red" fill="none" latexdraw:rotationAngle="0.0"/>
        </g>
        <g latexdraw:type="joinedLines" id="id1943366534">
            <polyline points="320.95141751576534,219.663906794647 320.95141751576534,199.00855376720097 " stroke-width="2.5" stroke="red" latexdraw:rotationAngle="0.0"/>
        </g>
        <g latexdraw:type="joinedLines" id="id257268866">
            <polyline points="466.0049019607843,225.1307189542485 508.36601307189517,225.1307189542485 " stroke-width="1.0" stroke="black" latexdraw:rotationAngle="0.0" marker-start="url(#arrow0-257268866)" marker-end="url(#arrow1-257268866)"/>
        </g>
        <g latexdraw:type="joinedLines" id="id967660658">
            <polyline points="180.25636921435228,200.8096571962118 180.25636921435228,220.8096571962118 380.2563692143523,220.8096571962118 380.2563692143523,200.8096571962118 " stroke-width="2.0" stroke="black" fill="none" latexdraw:rotationAngle="0.0"/>
        </g>
        <g latexdraw:type="joinedLines" id="id1009953141">
            <polyline points="183.92156862745105,227.05882352941177 241.96078431372564,227.0588235294116 " stroke-width="1.0" stroke="black" latexdraw:rotationAngle="0.0" marker-start="url(#arrow0-1009953141)" marker-end="url(#arrow1-1009953141)"/>
        </g>
        <g latexdraw:type="text" id="id680783696" fill="black" latexdraw:position="bl">
            <text x="482.35294117647095" y="241.16013071895497">$\tau$</text>
        </g>
        <g latexdraw:type="text" id="id928714438" fill="black" latexdraw:position="bl">
            <text x="196.86274509803928" y="246.2745098039211">$\textcolor{red}{\tau'} \geq \tau$</text>
        </g>
        <g latexdraw:type="joinedLines" id="id435350560">
            <polyline points="461.1693908332561,199.91473512481912 461.1693908332561,219.91473512481912 661.1693908332561,219.91473512481912 661.1693908332561,199.91473512481912 " stroke-width="2.0" stroke="black" fill="none" latexdraw:rotationAngle="0.0"/>
        </g>
        <g latexdraw:type="joinedLines" id="id753782667">
            <polyline points="460.84460450847007,199.82926503934902 460.84460450847007,219.82926503934902 660.8446045084701,219.82926503934902 660.8446045084701,199.82926503934902 " stroke-width="2.0" stroke="black" fill="none" latexdraw:rotationAngle="0.0"/>
        </g>
        <g latexdraw:type="joinedLines" id="id1825967283">
            <polyline points="400.2777777777783,197.77777777777803 443.33333333333394,197.77777777777803 " stroke-width="2.0" stroke="black" latexdraw:rotationAngle="0.0" marker-end="url(#arrow1-1825967283)"/>
        </g>
        <g latexdraw:type="rectangle" id="id2012275128">
            <rect x="523.9482758620693" y="200.50000000000057" width="39.68965517241395" height="18.310344827586107" latexdraw:borderPos="outer" stroke-width="1.0" stroke="black" fill="url(#pattern2012275128)"/>
        </g>
        <g latexdraw:type="rectangle" id="id1151235112">
            <rect x="466.0172413793107" y="200.50000000000034" width="39.68965517241395" height="18.310344827586107" latexdraw:borderPos="outer" stroke-width="1.0" stroke="black" fill="url(#pattern1151235112)"/>
        </g>
        <g latexdraw:type="rectangle" id="id1020637679">
            <rect x="602.5689655172418" y="200.50000000000034" width="39.68965517241395" height="18.310344827586107" latexdraw:borderPos="outer" stroke-width="1.0" stroke="black" fill="url(#pattern1020637679)"/>
        </g>
        <g latexdraw:type="rectangle" id="id256563936">
            <rect x="242.91379310344837" y="201.53448275862127" width="39.68965517241395" height="18.310344827586107" latexdraw:borderPos="outer" stroke-width="1.0" stroke="black" fill="url(#pattern256563936)"/>
        </g>
        <g latexdraw:type="rectangle" id="id301017945">
            <rect x="184.98275862068976" y="201.53448275862104" width="39.68965517241395" height="18.310344827586107" latexdraw:borderPos="outer" stroke-width="1.0" stroke="black" fill="url(#pattern301017945)"/>
        </g>
        <g latexdraw:type="rectangle" id="id1726933690">
            <rect x="321.5344827586209" y="201.18965517241406" width="39.68965517241395" height="18.310344827586107" latexdraw:borderPos="outer" stroke-width="1.0" stroke="black" fill="url(#pattern1726933690)"/>
        </g>
    </g>
    <defs>
        <marker overflow="visible" orient="auto" id="arrow0-257268866">
            <path d="M 0.0 0.0 L 6.504166666666667 2.322916666666667 L 6.504166666666667 0.0 L 6.504166666666667 -2.322916666666667 z " latexdraw:arrSizeNum="2.0" fill="black"/>
        </marker>
        <marker overflow="visible" orient="auto" id="arrow1-257268866">
            <path d="M 0.0 0.0 L -6.504166666666667 2.322916666666667 L -6.504166666666667 0.0 L -6.504166666666667 -2.322916666666667 z " latexdraw:arrSizeNum="2.0" fill="black"/>
        </marker>
        <marker overflow="visible" orient="auto" id="arrow0-1009953141">
            <path d="M 0.0 0.0 L 6.504166666666667 2.322916666666667 L 6.504166666666667 0.0 L 6.504166666666667 -2.322916666666667 z " latexdraw:arrSizeNum="2.0" fill="black"/>
        </marker>
        <marker overflow="visible" orient="auto" id="arrow1-1009953141">
            <path d="M 0.0 0.0 L -6.504166666666667 2.322916666666667 L -6.504166666666667 0.0 L -6.504166666666667 -2.322916666666667 z " latexdraw:arrSizeNum="2.0" fill="black"/>
        </marker>
        <marker overflow="visible" orient="auto" id="arrow1-1825967283">
            <path d="M 0.0 0.0 L -4.652083333333334 1.6614583333333335 L -4.652083333333334 0.0 L -4.652083333333334 -1.6614583333333335 z " latexdraw:arrSizeNum="2.0" fill="black"/>
        </marker>
        <pattern latexdraw:type="vlines" latexdraw:rotationAngle="0.0" latexdraw:size="4.0600000000000005" patternUnits="userSpaceOnUse" id="pattern2012275128" x="0" y="0" width="564" height="219">
            <g stroke="black" stroke-width="1.0" stroke-dasharray="none">
                <path d="M 523.4482758620693 200.00000000000057 L 523.4482758620693 219.31034482758668 M 528.5082758620692 200.00000000000057 L 528.5082758620692 219.31034482758668 M 533.5682758620692 200.00000000000057 L 533.5682758620692 219.31034482758668 M 538.6282758620691 200.00000000000057 L 538.6282758620691 219.31034482758668 M 543.6882758620691 200.00000000000057 L 543.6882758620691 219.31034482758668 M 548.748275862069 200.00000000000057 L 548.748275862069 219.31034482758668 M 553.808275862069 200.00000000000057 L 553.808275862069 219.31034482758668 M 558.8682758620689 200.00000000000057 L 558.8682758620689 219.31034482758668 M 563.9282758620689 200.00000000000057 L 563.9282758620689 219.31034482758668 "/>
            </g>
        </pattern>
        <pattern latexdraw:type="vlines" latexdraw:rotationAngle="0.0" latexdraw:size="4.0600000000000005" patternUnits="userSpaceOnUse" id="pattern1151235112" x="0" y="0" width="506" height="219">
            <g stroke="black" stroke-width="1.0" stroke-dasharray="none">
                <path d="M 465.5172413793107 200.00000000000034 L 465.5172413793107 219.31034482758645 M 470.5772413793107 200.00000000000034 L 470.5772413793107 219.31034482758645 M 475.6372413793107 200.00000000000034 L 475.6372413793107 219.31034482758645 M 480.6972413793107 200.00000000000034 L 480.6972413793107 219.31034482758645 M 485.7572413793107 200.00000000000034 L 485.7572413793107 219.31034482758645 M 490.8172413793107 200.00000000000034 L 490.8172413793107 219.31034482758645 M 495.8772413793107 200.00000000000034 L 495.8772413793107 219.31034482758645 M 500.9372413793107 200.00000000000034 L 500.9372413793107 219.31034482758645 M 505.9972413793107 200.00000000000034 L 505.9972413793107 219.31034482758645 "/>
            </g>
        </pattern>
        <pattern latexdraw:type="vlines" latexdraw:rotationAngle="0.0" latexdraw:size="4.0600000000000005" patternUnits="userSpaceOnUse" id="pattern1020637679" x="0" y="0" width="642" height="219">
            <g stroke="black" stroke-width="1.0" stroke-dasharray="none">
                <path d="M 602.0689655172418 200.00000000000034 L 602.0689655172418 219.31034482758645 M 607.1289655172418 200.00000000000034 L 607.1289655172418 219.31034482758645 M 612.1889655172417 200.00000000000034 L 612.1889655172417 219.31034482758645 M 617.2489655172417 200.00000000000034 L 617.2489655172417 219.31034482758645 M 622.3089655172416 200.00000000000034 L 622.3089655172416 219.31034482758645 M 627.3689655172416 200.00000000000034 L 627.3689655172416 219.31034482758645 M 632.4289655172415 200.00000000000034 L 632.4289655172415 219.31034482758645 M 637.4889655172415 200.00000000000034 L 637.4889655172415 219.31034482758645 M 642.5489655172414 200.00000000000034 L 642.5489655172414 219.31034482758645 "/>
            </g>
        </pattern>
        <pattern latexdraw:type="vlines" latexdraw:rotationAngle="0.0" latexdraw:size="4.0600000000000005" patternUnits="userSpaceOnUse" id="pattern256563936" x="0" y="0" width="283" height="220">
            <g stroke="black" stroke-width="1.0" stroke-dasharray="none">
                <path d="M 242.41379310344837 201.03448275862127 L 242.41379310344837 220.34482758620737 M 247.47379310344837 201.03448275862127 L 247.47379310344837 220.34482758620737 M 252.53379310344837 201.03448275862127 L 252.53379310344837 220.34482758620737 M 257.5937931034484 201.03448275862127 L 257.5937931034484 220.34482758620737 M 262.6537931034484 201.03448275862127 L 262.6537931034484 220.34482758620737 M 267.7137931034484 201.03448275862127 L 267.7137931034484 220.34482758620737 M 272.7737931034484 201.03448275862127 L 272.7737931034484 220.34482758620737 M 277.8337931034484 201.03448275862127 L 277.8337931034484 220.34482758620737 M 282.8937931034484 201.03448275862127 L 282.8937931034484 220.34482758620737 "/>
            </g>
        </pattern>
        <pattern latexdraw:type="vlines" latexdraw:rotationAngle="0.0" latexdraw:size="4.0600000000000005" patternUnits="userSpaceOnUse" id="pattern301017945" x="0" y="0" width="225" height="220">
            <g stroke="black" stroke-width="1.0" stroke-dasharray="none">
                <path d="M 184.48275862068976 201.03448275862104 L 184.48275862068976 220.34482758620715 M 189.54275862068977 201.03448275862104 L 189.54275862068977 220.34482758620715 M 194.60275862068977 201.03448275862104 L 194.60275862068977 220.34482758620715 M 199.66275862068977 201.03448275862104 L 199.66275862068977 220.34482758620715 M 204.72275862068977 201.03448275862104 L 204.72275862068977 220.34482758620715 M 209.78275862068978 201.03448275862104 L 209.78275862068978 220.34482758620715 M 214.84275862068978 201.03448275862104 L 214.84275862068978 220.34482758620715 M 219.90275862068978 201.03448275862104 L 219.90275862068978 220.34482758620715 M 224.96275862068978 201.03448275862104 L 224.96275862068978 220.34482758620715 "/>
            </g>
        </pattern>
        <pattern latexdraw:type="vlines" latexdraw:rotationAngle="0.0" latexdraw:size="4.0600000000000005" patternUnits="userSpaceOnUse" id="pattern1726933690" x="0" y="0" width="361" height="220">
            <g stroke="black" stroke-width="1.0" stroke-dasharray="none">
                <path d="M 321.0344827586209 200.68965517241406 L 321.0344827586209 220.00000000000017 M 326.0944827586209 200.68965517241406 L 326.0944827586209 220.00000000000017 M 331.15448275862093 200.68965517241406 L 331.15448275862093 220.00000000000017 M 336.21448275862093 200.68965517241406 L 336.21448275862093 220.00000000000017 M 341.27448275862093 200.68965517241406 L 341.27448275862093 220.00000000000017 M 346.33448275862094 200.68965517241406 L 346.33448275862094 220.00000000000017 M 351.39448275862094 200.68965517241406 L 351.39448275862094 220.00000000000017 M 356.45448275862094 200.68965517241406 L 356.45448275862094 220.00000000000017 M 361.51448275862094 200.68965517241406 L 361.51448275862094 220.00000000000017 "/>
            </g>
        </pattern>
    </defs>
    <metadata>
        <latexdraw:metadata>
            <latexdraw:latexIncludes/>
            <latexdraw:displayXScale>true</latexdraw:displayXScale>
            <latexdraw:displayYScale>true</latexdraw:displayYScale>
            <latexdraw:unit>CM</latexdraw:unit>
            <latexdraw:zoom>2.8999999999999977</latexdraw:zoom>
            <latexdraw:magneticGridStyle>CUSTOMISED</latexdraw:magneticGridStyle>
            <latexdraw:gridGap>20</latexdraw:gridGap>
            <latexdraw:magneticGrid>false</latexdraw:magneticGrid>
            <latexdraw:version>3.3.8</latexdraw:version>
            <latexdraw:size>
                <latexdraw:width>1853</latexdraw:width>
                <latexdraw:height>1055</latexdraw:height>
            </latexdraw:size>
            <latexdraw:position>
                <latexdraw:x>1920.0</latexdraw:x>
                <latexdraw:y>0.0</latexdraw:y>
            </latexdraw:position>
        </latexdraw:metadata>
    </metadata>
</svg>
