<?xml version="1.0" encoding="UTF-8"?><svg xmlns="http://www.w3.org/2000/svg" xmlns:latexdraw="http://latexdraw.sourceforge.net/namespaces/latexdraw" version="1.1" baseProfile="full">
    <g>
        <g latexdraw:type="text" id="id67187144" fill="black" latexdraw:position="bl">
            <text x="106.15384615384592" y="176.923076923077">$c_1$</text>
        </g>
        <g latexdraw:type="text" id="id2031072924" fill="black" latexdraw:position="bl">
            <text x="107.69230769230725" y="219.99999999999994">$c_2$</text>
        </g>
        <g latexdraw:type="text" id="id487869507" fill="black" latexdraw:position="bl">
            <text x="255.63328033916275" y="136.60837307896134">$A'$</text>
        </g>
        <g latexdraw:type="joinedLines" id="id857271644">
            <polyline points="179.81192476990782,158.5874349739895 179.81192476990782,178.5874349739895 379.8119247699078,178.5874349739895 379.8119247699078,158.5874349739895 " stroke-width="2.0" stroke="black" fill="none" latexdraw:rotationAngle="0.0"/>
        </g>
        <g latexdraw:type="joinedLines" id="id566589006">
            <polyline points="179.81192476990782,158.5874349739895 241.00900946688546,158.5874349739895 241.00900946688546,178.5874349739895 " stroke-width="1.7" stroke="#6b0101" fill="none" latexdraw:rotationAngle="0.0"/>
        </g>
        <g latexdraw:type="joinedLines" id="id756622703">
            <polyline points="180.5811555391383,200.89512728168188 180.5811555391383,220.89512728168188 380.5811555391383,220.89512728168188 380.5811555391383,200.89512728168188 " stroke-width="2.0" stroke="black" fill="none" latexdraw:rotationAngle="0.0"/>
        </g>
        <g latexdraw:type="joinedLines" id="id2138102363">
            <polyline points="183.40802892415127,199.96489472354233 241.27082505838166,199.96489472354233 241.27082505838166,219.96489472354233 " stroke-width="1.7" stroke="#6b0101" fill="none" latexdraw:rotationAngle="0.0"/>
        </g>
        <g latexdraw:type="joinedLines" id="id940707643">
            <polyline points="241.2397967127572,158.50572535739605 302.43688140974723,158.50572535739605 302.43688140974723,178.50572535739605 " stroke-width="1.7" stroke="#6b0101" fill="none" latexdraw:rotationAngle="0.0"/>
        </g>
        <g latexdraw:type="joinedLines" id="id1500625378">
            <polyline points="241.1127605618534,199.86336206387 298.9755566960828,199.86336206387 298.9755566960828,219.86336206387 " stroke-width="1.7" stroke="#6b0101" fill="none" latexdraw:rotationAngle="0.0"/>
        </g>
        <g latexdraw:type="joinedLines" id="id248869248">
            <polyline points="184.5410576160424,219.90735954972763 184.20464601060985,199.59309179359946 " stroke-width="1.5" stroke="#6f0000" latexdraw:rotationAngle="0.0"/>
        </g>
        <g latexdraw:type="joinedLines" id="id705217182">
            <polyline points="302.7445977375776,158.54343748813142 363.94168243454953,158.54343748813142 363.94168243454953,178.54343748813142 " stroke-width="1.7" stroke="#6b0101" fill="none" latexdraw:rotationAngle="0.0"/>
        </g>
        <g latexdraw:type="joinedLines" id="id532617953">
            <polyline points="302.3311039220447,177.1920861367799 302.3311039220447,158.273167217861 " stroke-width="1.7" stroke="#6b0101" latexdraw:rotationAngle="0.0"/>
        </g>
        <g latexdraw:type="joinedLines" id="id454367565">
            <polyline points="321.3423823545128,199.30363023902174 379.20517848874306,199.30363023902174 379.20517848874306,221.1392891537505 " stroke-width="1.7" stroke="#6b0101" fill="none" latexdraw:rotationAngle="0.0"/>
        </g>
        <g latexdraw:type="joinedLines" id="id1599142778">
            <polyline points="320.95141751576534,219.663906794647 320.95141751576534,199.00855376720097 " stroke-width="1.7" stroke="#6b0101" latexdraw:rotationAngle="0.0"/>
        </g>
        <g latexdraw:type="joinedLines" id="id783509380">
            <polyline points="180.49046377402772,177.64909197983235 180.49046377402772,159.89744265608988 " stroke-width="1.0" stroke="black" latexdraw:rotationAngle="0.0"/>
        </g>
        <g latexdraw:type="joinedLines" id="id85080138">
            <polyline points="466.0049019607843,225.1307189542485 508.36601307189517,225.1307189542485 " stroke-width="1.0" stroke="black" latexdraw:rotationAngle="0.0" marker-start="url(#arrow0-85080138)" marker-end="url(#arrow1-85080138)"/>
        </g>
        <g latexdraw:type="joinedLines" id="id1828103717">
            <polyline points="179.81192476990782,158.36521275176722 179.81192476990782,178.36521275176722 379.8119247699078,178.36521275176722 379.8119247699078,158.36521275176722 " stroke-width="2.0" stroke="black" fill="none" latexdraw:rotationAngle="0.0"/>
        </g>
        <g latexdraw:type="joinedLines" id="id738626703">
            <polyline points="180.25636921435228,200.8096571962118 180.25636921435228,220.8096571962118 380.2563692143523,220.8096571962118 380.2563692143523,200.8096571962118 " stroke-width="2.0" stroke="black" fill="none" latexdraw:rotationAngle="0.0"/>
        </g>
        <g latexdraw:type="joinedLines" id="id1813421958">
            <polyline points="183.92156862745105,227.05882352941177 241.96078431372564,227.0588235294116 " stroke-width="1.0" stroke="black" latexdraw:rotationAngle="0.0" marker-start="url(#arrow0-1813421958)" marker-end="url(#arrow1-1813421958)"/>
        </g>
        <g latexdraw:type="text" id="id1361235778" fill="black" latexdraw:position="bl">
            <text x="482.35294117647095" y="241.16013071895497">$\tau$</text>
        </g>
        <g latexdraw:type="text" id="id209887313" fill="black" latexdraw:position="bl">
            <text x="196.86274509803928" y="246.2745098039211">$\textcolor{brown}{\tau'} \geq \tau$</text>
        </g>
        <g latexdraw:type="text" id="id45126915" fill="black" latexdraw:position="bl">
            <text x="536.6136724960255" y="137.19660837307913">$A$</text>
        </g>
        <g latexdraw:type="joinedLines" id="id263159778">
            <polyline points="460.4001600640256,157.60704281712674 460.4001600640256,177.60704281712674 660.4001600640256,177.60704281712674 660.4001600640256,157.60704281712674 " stroke-width="2.0" stroke="black" fill="none" latexdraw:rotationAngle="0.0"/>
        </g>
        <g latexdraw:type="joinedLines" id="id729147585">
            <polyline points="461.1693908332561,199.91473512481912 461.1693908332561,219.91473512481912 661.1693908332561,219.91473512481912 661.1693908332561,199.91473512481912 " stroke-width="2.0" stroke="black" fill="none" latexdraw:rotationAngle="0.0"/>
        </g>
        <g latexdraw:type="joinedLines" id="id2103293692">
            <polyline points="461.0786990681455,176.6686998229696 461.0786990681455,158.91705049922712 " stroke-width="1.0" stroke="black" latexdraw:rotationAngle="0.0"/>
        </g>
        <g latexdraw:type="joinedLines" id="id1127024543">
            <polyline points="461.52314351258985,177.88351463778403 461.52314351258985,158.47260605478243 " stroke-width="1.0" stroke="#010101" latexdraw:rotationAngle="0.0"/>
        </g>
        <g latexdraw:type="joinedLines" id="id177390253">
            <polyline points="460.4001600640256,157.38482059490445 460.4001600640256,177.38482059490445 660.4001600640256,177.38482059490445 660.4001600640256,157.38482059490445 " stroke-width="2.0" stroke="black" fill="none" latexdraw:rotationAngle="0.0"/>
        </g>
        <g latexdraw:type="joinedLines" id="id1924736894">
            <polyline points="460.84460450847007,199.82926503934902 460.84460450847007,219.82926503934902 660.8446045084701,219.82926503934902 660.8446045084701,199.82926503934902 " stroke-width="2.0" stroke="black" fill="none" latexdraw:rotationAngle="0.0"/>
        </g>
        <g latexdraw:type="joinedLines" id="id1033519961">
            <polyline points="400.2777777777783,197.77777777777803 443.33333333333394,197.77777777777803 " stroke-width="2.0" stroke="black" latexdraw:rotationAngle="0.0" marker-end="url(#arrow1-1033519961)"/>
        </g>
        <g latexdraw:type="rectangle" id="id454434647">
            <rect x="461.8793103448279" y="158.77586206896592" width="39.68965517241389" height="18.310344827586107" latexdraw:borderPos="outer" stroke-width="1.0" stroke="black" fill="url(#pattern454434647)"/>
        </g>
        <g latexdraw:type="rectangle" id="id26815706">
            <rect x="523.2586206896556" y="158.0862068965522" width="39.68965517241395" height="18.310344827586107" latexdraw:borderPos="outer" stroke-width="1.0" stroke="black" fill="url(#pattern26815706)"/>
        </g>
        <g latexdraw:type="rectangle" id="id1356647077">
            <rect x="583.9482758620693" y="158.77586206896615" width="39.68965517241395" height="18.310344827586107" latexdraw:borderPos="outer" stroke-width="1.0" stroke="black" fill="url(#pattern1356647077)"/>
        </g>
        <g latexdraw:type="rectangle" id="id1523338911">
            <rect x="523.9482758620693" y="200.50000000000057" width="39.68965517241395" height="18.310344827586107" latexdraw:borderPos="outer" stroke-width="1.0" stroke="black" fill="url(#pattern1523338911)"/>
        </g>
        <g latexdraw:type="rectangle" id="id1882303520">
            <rect x="466.0172413793107" y="200.50000000000034" width="39.68965517241395" height="18.310344827586107" latexdraw:borderPos="outer" stroke-width="1.0" stroke="black" fill="url(#pattern1882303520)"/>
        </g>
        <g latexdraw:type="rectangle" id="id1969420197">
            <rect x="602.5689655172418" y="200.50000000000034" width="39.68965517241395" height="18.310344827586107" latexdraw:borderPos="outer" stroke-width="1.0" stroke="black" fill="url(#pattern1969420197)"/>
        </g>
        <g latexdraw:type="rectangle" id="id1183826223">
            <rect x="242.91379310344837" y="201.53448275862127" width="39.68965517241395" height="18.310344827586107" latexdraw:borderPos="outer" stroke-width="1.0" stroke="black" fill="url(#pattern1183826223)"/>
        </g>
        <g latexdraw:type="rectangle" id="id1277152119">
            <rect x="184.98275862068976" y="201.53448275862104" width="39.68965517241395" height="18.310344827586107" latexdraw:borderPos="outer" stroke-width="1.0" stroke="black" fill="url(#pattern1277152119)"/>
        </g>
        <g latexdraw:type="rectangle" id="id88188790">
            <rect x="321.5344827586209" y="201.18965517241406" width="39.68965517241395" height="18.310344827586107" latexdraw:borderPos="outer" stroke-width="1.0" stroke="black" fill="url(#pattern88188790)"/>
        </g>
        <g latexdraw:type="rectangle" id="id194630535">
            <rect x="180.84482758620697" y="159.81034482758662" width="39.68965517241395" height="18.310344827586107" latexdraw:borderPos="outer" stroke-width="1.0" stroke="black" fill="url(#pattern194630535)"/>
        </g>
        <g latexdraw:type="rectangle" id="id1110426854">
            <rect x="242.22413793103465" y="159.1206896551729" width="39.68965517241395" height="18.310344827586107" latexdraw:borderPos="outer" stroke-width="1.0" stroke="black" fill="url(#pattern1110426854)"/>
        </g>
        <g latexdraw:type="rectangle" id="id1096532849">
            <rect x="303.9482758620693" y="159.46551724137987" width="39.68965517241395" height="18.310344827586107" latexdraw:borderPos="outer" stroke-width="1.0" stroke="black" fill="url(#pattern1096532849)"/>
        </g>
    </g>
    <defs>
        <marker overflow="visible" orient="auto" id="arrow0-85080138">
            <path d="M 0.0 0.0 L 6.504166666666667 2.322916666666667 L 6.504166666666667 0.0 L 6.504166666666667 -2.322916666666667 z " latexdraw:arrSizeNum="2.0" fill="black"/>
        </marker>
        <marker overflow="visible" orient="auto" id="arrow1-85080138">
            <path d="M 0.0 0.0 L -6.504166666666667 2.322916666666667 L -6.504166666666667 0.0 L -6.504166666666667 -2.322916666666667 z " latexdraw:arrSizeNum="2.0" fill="black"/>
        </marker>
        <marker overflow="visible" orient="auto" id="arrow0-1813421958">
            <path d="M 0.0 0.0 L 6.504166666666667 2.322916666666667 L 6.504166666666667 0.0 L 6.504166666666667 -2.322916666666667 z " latexdraw:arrSizeNum="2.0" fill="black"/>
        </marker>
        <marker overflow="visible" orient="auto" id="arrow1-1813421958">
            <path d="M 0.0 0.0 L -6.504166666666667 2.322916666666667 L -6.504166666666667 0.0 L -6.504166666666667 -2.322916666666667 z " latexdraw:arrSizeNum="2.0" fill="black"/>
        </marker>
        <marker overflow="visible" orient="auto" id="arrow1-1033519961">
            <path d="M 0.0 0.0 L -4.652083333333334 1.6614583333333335 L -4.652083333333334 0.0 L -4.652083333333334 -1.6614583333333335 z " latexdraw:arrSizeNum="2.0" fill="black"/>
        </marker>
        <pattern latexdraw:type="vlines" latexdraw:rotationAngle="0.0" latexdraw:size="4.0600000000000005" patternUnits="userSpaceOnUse" id="pattern454434647" x="0" y="0" width="502" height="177">
            <g stroke="black" stroke-width="1.0" stroke-dasharray="none">
                <path d="M 461.3793103448279 158.27586206896592 L 461.3793103448279 177.58620689655203 M 466.4393103448279 158.27586206896592 L 466.4393103448279 177.58620689655203 M 471.4993103448279 158.27586206896592 L 471.4993103448279 177.58620689655203 M 476.5593103448279 158.27586206896592 L 476.5593103448279 177.58620689655203 M 481.6193103448279 158.27586206896592 L 481.6193103448279 177.58620689655203 M 486.6793103448279 158.27586206896592 L 486.6793103448279 177.58620689655203 M 491.7393103448279 158.27586206896592 L 491.7393103448279 177.58620689655203 M 496.7993103448279 158.27586206896592 L 496.7993103448279 177.58620689655203 M 501.8593103448279 158.27586206896592 L 501.8593103448279 177.58620689655203 "/>
            </g>
        </pattern>
        <pattern latexdraw:type="vlines" latexdraw:rotationAngle="0.0" latexdraw:size="4.0600000000000005" patternUnits="userSpaceOnUse" id="pattern26815706" x="0" y="0" width="563" height="176">
            <g stroke="black" stroke-width="1.0" stroke-dasharray="none">
                <path d="M 522.7586206896556 157.5862068965522 L 522.7586206896556 176.8965517241383 M 527.8186206896555 157.5862068965522 L 527.8186206896555 176.8965517241383 M 532.8786206896555 157.5862068965522 L 532.8786206896555 176.8965517241383 M 537.9386206896554 157.5862068965522 L 537.9386206896554 176.8965517241383 M 542.9986206896554 157.5862068965522 L 542.9986206896554 176.8965517241383 M 548.0586206896553 157.5862068965522 L 548.0586206896553 176.8965517241383 M 553.1186206896552 157.5862068965522 L 553.1186206896552 176.8965517241383 M 558.1786206896552 157.5862068965522 L 558.1786206896552 176.8965517241383 M 563.2386206896551 157.5862068965522 L 563.2386206896551 176.8965517241383 "/>
            </g>
        </pattern>
        <pattern latexdraw:type="vlines" latexdraw:rotationAngle="0.0" latexdraw:size="4.0600000000000005" patternUnits="userSpaceOnUse" id="pattern1356647077" x="0" y="0" width="624" height="177">
            <g stroke="black" stroke-width="1.0" stroke-dasharray="none">
                <path d="M 583.4482758620693 158.27586206896615 L 583.4482758620693 177.58620689655226 M 588.5082758620692 158.27586206896615 L 588.5082758620692 177.58620689655226 M 593.5682758620692 158.27586206896615 L 593.5682758620692 177.58620689655226 M 598.6282758620691 158.27586206896615 L 598.6282758620691 177.58620689655226 M 603.6882758620691 158.27586206896615 L 603.6882758620691 177.58620689655226 M 608.748275862069 158.27586206896615 L 608.748275862069 177.58620689655226 M 613.808275862069 158.27586206896615 L 613.808275862069 177.58620689655226 M 618.8682758620689 158.27586206896615 L 618.8682758620689 177.58620689655226 M 623.9282758620689 158.27586206896615 L 623.9282758620689 177.58620689655226 "/>
            </g>
        </pattern>
        <pattern latexdraw:type="vlines" latexdraw:rotationAngle="0.0" latexdraw:size="4.0600000000000005" patternUnits="userSpaceOnUse" id="pattern1523338911" x="0" y="0" width="564" height="219">
            <g stroke="black" stroke-width="1.0" stroke-dasharray="none">
                <path d="M 523.4482758620693 200.00000000000057 L 523.4482758620693 219.31034482758668 M 528.5082758620692 200.00000000000057 L 528.5082758620692 219.31034482758668 M 533.5682758620692 200.00000000000057 L 533.5682758620692 219.31034482758668 M 538.6282758620691 200.00000000000057 L 538.6282758620691 219.31034482758668 M 543.6882758620691 200.00000000000057 L 543.6882758620691 219.31034482758668 M 548.748275862069 200.00000000000057 L 548.748275862069 219.31034482758668 M 553.808275862069 200.00000000000057 L 553.808275862069 219.31034482758668 M 558.8682758620689 200.00000000000057 L 558.8682758620689 219.31034482758668 M 563.9282758620689 200.00000000000057 L 563.9282758620689 219.31034482758668 "/>
            </g>
        </pattern>
        <pattern latexdraw:type="vlines" latexdraw:rotationAngle="0.0" latexdraw:size="4.0600000000000005" patternUnits="userSpaceOnUse" id="pattern1882303520" x="0" y="0" width="506" height="219">
            <g stroke="black" stroke-width="1.0" stroke-dasharray="none">
                <path d="M 465.5172413793107 200.00000000000034 L 465.5172413793107 219.31034482758645 M 470.5772413793107 200.00000000000034 L 470.5772413793107 219.31034482758645 M 475.6372413793107 200.00000000000034 L 475.6372413793107 219.31034482758645 M 480.6972413793107 200.00000000000034 L 480.6972413793107 219.31034482758645 M 485.7572413793107 200.00000000000034 L 485.7572413793107 219.31034482758645 M 490.8172413793107 200.00000000000034 L 490.8172413793107 219.31034482758645 M 495.8772413793107 200.00000000000034 L 495.8772413793107 219.31034482758645 M 500.9372413793107 200.00000000000034 L 500.9372413793107 219.31034482758645 M 505.9972413793107 200.00000000000034 L 505.9972413793107 219.31034482758645 "/>
            </g>
        </pattern>
        <pattern latexdraw:type="vlines" latexdraw:rotationAngle="0.0" latexdraw:size="4.0600000000000005" patternUnits="userSpaceOnUse" id="pattern1969420197" x="0" y="0" width="642" height="219">
            <g stroke="black" stroke-width="1.0" stroke-dasharray="none">
                <path d="M 602.0689655172418 200.00000000000034 L 602.0689655172418 219.31034482758645 M 607.1289655172418 200.00000000000034 L 607.1289655172418 219.31034482758645 M 612.1889655172417 200.00000000000034 L 612.1889655172417 219.31034482758645 M 617.2489655172417 200.00000000000034 L 617.2489655172417 219.31034482758645 M 622.3089655172416 200.00000000000034 L 622.3089655172416 219.31034482758645 M 627.3689655172416 200.00000000000034 L 627.3689655172416 219.31034482758645 M 632.4289655172415 200.00000000000034 L 632.4289655172415 219.31034482758645 M 637.4889655172415 200.00000000000034 L 637.4889655172415 219.31034482758645 M 642.5489655172414 200.00000000000034 L 642.5489655172414 219.31034482758645 "/>
            </g>
        </pattern>
        <pattern latexdraw:type="vlines" latexdraw:rotationAngle="0.0" latexdraw:size="4.0600000000000005" patternUnits="userSpaceOnUse" id="pattern1183826223" x="0" y="0" width="283" height="220">
            <g stroke="black" stroke-width="1.0" stroke-dasharray="none">
                <path d="M 242.41379310344837 201.03448275862127 L 242.41379310344837 220.34482758620737 M 247.47379310344837 201.03448275862127 L 247.47379310344837 220.34482758620737 M 252.53379310344837 201.03448275862127 L 252.53379310344837 220.34482758620737 M 257.5937931034484 201.03448275862127 L 257.5937931034484 220.34482758620737 M 262.6537931034484 201.03448275862127 L 262.6537931034484 220.34482758620737 M 267.7137931034484 201.03448275862127 L 267.7137931034484 220.34482758620737 M 272.7737931034484 201.03448275862127 L 272.7737931034484 220.34482758620737 M 277.8337931034484 201.03448275862127 L 277.8337931034484 220.34482758620737 M 282.8937931034484 201.03448275862127 L 282.8937931034484 220.34482758620737 "/>
            </g>
        </pattern>
        <pattern latexdraw:type="vlines" latexdraw:rotationAngle="0.0" latexdraw:size="4.0600000000000005" patternUnits="userSpaceOnUse" id="pattern1277152119" x="0" y="0" width="225" height="220">
            <g stroke="black" stroke-width="1.0" stroke-dasharray="none">
                <path d="M 184.48275862068976 201.03448275862104 L 184.48275862068976 220.34482758620715 M 189.54275862068977 201.03448275862104 L 189.54275862068977 220.34482758620715 M 194.60275862068977 201.03448275862104 L 194.60275862068977 220.34482758620715 M 199.66275862068977 201.03448275862104 L 199.66275862068977 220.34482758620715 M 204.72275862068977 201.03448275862104 L 204.72275862068977 220.34482758620715 M 209.78275862068978 201.03448275862104 L 209.78275862068978 220.34482758620715 M 214.84275862068978 201.03448275862104 L 214.84275862068978 220.34482758620715 M 219.90275862068978 201.03448275862104 L 219.90275862068978 220.34482758620715 M 224.96275862068978 201.03448275862104 L 224.96275862068978 220.34482758620715 "/>
            </g>
        </pattern>
        <pattern latexdraw:type="vlines" latexdraw:rotationAngle="0.0" latexdraw:size="4.0600000000000005" patternUnits="userSpaceOnUse" id="pattern88188790" x="0" y="0" width="361" height="220">
            <g stroke="black" stroke-width="1.0" stroke-dasharray="none">
                <path d="M 321.0344827586209 200.68965517241406 L 321.0344827586209 220.00000000000017 M 326.0944827586209 200.68965517241406 L 326.0944827586209 220.00000000000017 M 331.15448275862093 200.68965517241406 L 331.15448275862093 220.00000000000017 M 336.21448275862093 200.68965517241406 L 336.21448275862093 220.00000000000017 M 341.27448275862093 200.68965517241406 L 341.27448275862093 220.00000000000017 M 346.33448275862094 200.68965517241406 L 346.33448275862094 220.00000000000017 M 351.39448275862094 200.68965517241406 L 351.39448275862094 220.00000000000017 M 356.45448275862094 200.68965517241406 L 356.45448275862094 220.00000000000017 M 361.51448275862094 200.68965517241406 L 361.51448275862094 220.00000000000017 "/>
            </g>
        </pattern>
        <pattern latexdraw:type="vlines" latexdraw:rotationAngle="0.0" latexdraw:size="4.0600000000000005" patternUnits="userSpaceOnUse" id="pattern194630535" x="0" y="0" width="221" height="178">
            <g stroke="black" stroke-width="1.0" stroke-dasharray="none">
                <path d="M 180.34482758620697 159.31034482758662 L 180.34482758620697 178.62068965517273 M 185.40482758620698 159.31034482758662 L 185.40482758620698 178.62068965517273 M 190.46482758620698 159.31034482758662 L 190.46482758620698 178.62068965517273 M 195.52482758620698 159.31034482758662 L 195.52482758620698 178.62068965517273 M 200.58482758620698 159.31034482758662 L 200.58482758620698 178.62068965517273 M 205.644827586207 159.31034482758662 L 205.644827586207 178.62068965517273 M 210.704827586207 159.31034482758662 L 210.704827586207 178.62068965517273 M 215.764827586207 159.31034482758662 L 215.764827586207 178.62068965517273 M 220.824827586207 159.31034482758662 L 220.824827586207 178.62068965517273 "/>
            </g>
        </pattern>
        <pattern latexdraw:type="vlines" latexdraw:rotationAngle="0.0" latexdraw:size="4.0600000000000005" patternUnits="userSpaceOnUse" id="pattern1110426854" x="0" y="0" width="282" height="177">
            <g stroke="black" stroke-width="1.0" stroke-dasharray="none">
                <path d="M 241.72413793103465 158.6206896551729 L 241.72413793103465 177.931034482759 M 246.78413793103465 158.6206896551729 L 246.78413793103465 177.931034482759 M 251.84413793103465 158.6206896551729 L 251.84413793103465 177.931034482759 M 256.90413793103465 158.6206896551729 L 256.90413793103465 177.931034482759 M 261.96413793103466 158.6206896551729 L 261.96413793103466 177.931034482759 M 267.02413793103466 158.6206896551729 L 267.02413793103466 177.931034482759 M 272.08413793103466 158.6206896551729 L 272.08413793103466 177.931034482759 M 277.14413793103466 158.6206896551729 L 277.14413793103466 177.931034482759 M 282.20413793103467 158.6206896551729 L 282.20413793103467 177.931034482759 "/>
            </g>
        </pattern>
        <pattern latexdraw:type="vlines" latexdraw:rotationAngle="0.0" latexdraw:size="4.0600000000000005" patternUnits="userSpaceOnUse" id="pattern1096532849" x="0" y="0" width="344" height="178">
            <g stroke="black" stroke-width="1.0" stroke-dasharray="none">
                <path d="M 303.4482758620693 158.96551724137987 L 303.4482758620693 178.27586206896598 M 308.5082758620693 158.96551724137987 L 308.5082758620693 178.27586206896598 M 313.5682758620693 158.96551724137987 L 313.5682758620693 178.27586206896598 M 318.6282758620693 158.96551724137987 L 318.6282758620693 178.27586206896598 M 323.6882758620693 158.96551724137987 L 323.6882758620693 178.27586206896598 M 328.7482758620693 158.96551724137987 L 328.7482758620693 178.27586206896598 M 333.8082758620693 158.96551724137987 L 333.8082758620693 178.27586206896598 M 338.8682758620693 158.96551724137987 L 338.8682758620693 178.27586206896598 M 343.9282758620693 158.96551724137987 L 343.9282758620693 178.27586206896598 "/>
            </g>
        </pattern>
    </defs>
    <metadata>
        <latexdraw:metadata>
            <latexdraw:latexIncludes/>
            <latexdraw:displayXScale>true</latexdraw:displayXScale>
            <latexdraw:displayYScale>true</latexdraw:displayYScale>
            <latexdraw:unit>CM</latexdraw:unit>
            <latexdraw:zoom>2.8999999999999977</latexdraw:zoom>
            <latexdraw:magneticGridStyle>CUSTOMISED</latexdraw:magneticGridStyle>
            <latexdraw:gridGap>20</latexdraw:gridGap>
            <latexdraw:magneticGrid>false</latexdraw:magneticGrid>
            <latexdraw:version>3.3.8</latexdraw:version>
            <latexdraw:size>
                <latexdraw:width>1853</latexdraw:width>
                <latexdraw:height>1055</latexdraw:height>
            </latexdraw:size>
            <latexdraw:position>
                <latexdraw:x>1920.0</latexdraw:x>
                <latexdraw:y>0.0</latexdraw:y>
            </latexdraw:position>
        </latexdraw:metadata>
    </metadata>
</svg>
