<?xml version="1.0" encoding="UTF-8"?><svg xmlns="http://www.w3.org/2000/svg" xmlns:latexdraw="http://latexdraw.sourceforge.net/namespaces/latexdraw" version="1.1" baseProfile="full">
    <g>
        <g latexdraw:type="joinedLines" id="id340022031">
            <polyline points="200.0,100.0 200.0,120.0 220.0,120.0 220.0,100.0 220.0,120.0 240.0,120.0 240.0,100.0 240.0,120.0 260.0,120.0 260.0,100.0 260.0,120.0 280.0,120.0 280.0,100.0 280.0,120.0 300.0,120.0 300.0,100.0 300.0,120.0 320.0,120.0 320.0,100.0 320.0,120.0 340.0,120.0 340.0,100.0 340.0,120.0 360.0,120.0 360.0,100.0 360.0,120.0 380.0,120.0 380.0,100.0 380.0,120.0 400.0,120.0 400.0,100.0 400.0,120.0 420.0,120.0 420.0,120.0 420.0,100.0 420.0,120.0 440.0,120.0 440.0,100.0 440.0,120.0 460.0,120.0 460.0,100.0 460.0,120.0 " stroke-width="2.0" stroke="black" fill="none" latexdraw:rotationAngle="0.0"/>
        </g>
        <g latexdraw:type="rectangle" id="id68276459">
            <rect x="301.0" y="92.0" width="58.0" height="18.0" latexdraw:borderPos="outer" stroke-width="2.0" stroke="black" fill="#3333ff"/>
        </g>
        <g latexdraw:type="rectangle" id="id125309899">
            <rect x="261.0" y="101.0" width="58.0" height="18.0" latexdraw:borderPos="outer" stroke-width="2.0" stroke="black" fill="#cc0033"/>
        </g>
    </g>
    <defs/>
    <metadata>
        <latexdraw:metadata>
            <latexdraw:latexIncludes/>
            <latexdraw:displayXScale>true</latexdraw:displayXScale>
            <latexdraw:displayYScale>true</latexdraw:displayYScale>
            <latexdraw:unit>CM</latexdraw:unit>
            <latexdraw:zoom>2.499999999999999</latexdraw:zoom>
            <latexdraw:magneticGridStyle>CUSTOMISED</latexdraw:magneticGridStyle>
            <latexdraw:gridGap>20</latexdraw:gridGap>
            <latexdraw:magneticGrid>false</latexdraw:magneticGrid>
            <latexdraw:version>3.3.8</latexdraw:version>
            <latexdraw:size>
                <latexdraw:width>1920</latexdraw:width>
                <latexdraw:height>1082</latexdraw:height>
            </latexdraw:size>
            <latexdraw:position>
                <latexdraw:x>0.0</latexdraw:x>
                <latexdraw:y>-2.0</latexdraw:y>
            </latexdraw:position>
        </latexdraw:metadata>
    </metadata>
</svg>
