<?xml version="1.0" encoding="UTF-8"?><svg xmlns="http://www.w3.org/2000/svg" xmlns:latexdraw="http://latexdraw.sourceforge.net/namespaces/latexdraw" version="1.1" baseProfile="full">
    <g>
        <g latexdraw:type="joinedLines" id="id1756813187">
            <polyline points="199.62512664640312,79.36170212765958 200.0,120.0 220.0,120.0 220.0,100.0 220.0,120.0 240.0,120.0 240.0,100.0 240.0,120.0 260.0,120.0 260.0,100.0 260.0,120.0 280.0,120.0 280.0,100.0 280.0,120.0 300.0,120.0 300.0,100.0 300.0,120.0 320.0,120.0 320.0,100.0 320.0,120.0 340.0,120.0 340.0,100.0 340.0,120.0 360.0,120.0 360.0,100.0 360.0,120.0 380.0,120.0 380.0,100.0 380.0,120.0 400.0,120.0 400.0,100.0 400.0,120.0 420.0,120.0 420.0,120.0 420.0,100.0 420.0,120.0 440.0,120.0 440.0,100.0 440.0,120.0 460.0,120.0 460.6666666666667,100.06349206349202 460.0,120.0 " stroke-width="2.0" stroke="black" fill="none" latexdraw:rotationAngle="0.0"/>
        </g>
        <g latexdraw:type="rectangle" id="id1926745811">
            <rect x="421.42553191489355" y="81.07446808510645" width="58.0" height="18.0" latexdraw:borderPos="outer" stroke-width="2.0" stroke="black" fill="#3333ff"/>
        </g>
        <g latexdraw:type="joinedLines" id="id1076215064">
            <polyline points="459.606214116852,59.91354272205327 459.9999999999998,119.80952380952374 479.9999999999998,119.80952380952374 479.9999999999998,99.80952380952374 479.9999999999998,119.80952380952374 499.9999999999998,119.80952380952374 499.9999999999998,99.80952380952374 499.9999999999998,119.80952380952374 519.9999999999998,119.80952380952374 519.9999999999998,99.80952380952374 519.9999999999998,119.80952380952374 539.9999999999998,119.80952380952374 539.9999999999998,99.80952380952374 539.9999999999998,119.80952380952374 559.9999999999998,119.80952380952374 559.9999999999998,99.80952380952374 559.9999999999998,119.80952380952374 579.9999999999998,119.80952380952374 579.9999999999998,99.80952380952374 579.9999999999998,119.80952380952374 599.9999999999998,119.80952380952374 599.9999999999998,99.80952380952374 599.9999999999998,119.80952380952374 619.9999999999998,119.80952380952374 619.9999999999998,99.80952380952374 619.9999999999998,119.80952380952374 639.9999999999998,119.80952380952374 639.9999999999998,99.80952380952374 639.9999999999998,119.80952380952374 659.9999999999998,119.80952380952374 659.9999999999998,99.80952380952374 659.9999999999998,119.80952380952374 679.9999999999998,119.80952380952374 679.9999999999998,119.80952380952374 679.9999999999998,99.80952380952374 679.9999999999998,119.80952380952374 699.9999999999998,119.80952380952374 699.9999999999998,99.80952380952374 699.9999999999998,119.80952380952374 719.9999999999998,119.80952380952374 720.4255319148933,78.42147922998983 719.9999999999998,119.80952380952374 " stroke-width="2.0" stroke="black" fill="none" latexdraw:rotationAngle="0.0"/>
        </g>
        <g latexdraw:type="rectangle" id="id419704729">
            <rect x="201.43650793650772" y="100.94748395812212" width="58.0" height="18.425531914893554" latexdraw:borderPos="outer" stroke-width="2.0" stroke="black" fill="#cc0033"/>
        </g>
        <g latexdraw:type="rectangle" id="id730423285">
            <rect x="460.58544410672016" y="100.59642012833478" width="59.70212765957467" height="18.851063829787336" latexdraw:borderPos="outer" stroke-width="2.0" stroke="black" fill="#cc0033"/>
        </g>
    </g>
    <defs/>
    <metadata>
        <latexdraw:metadata>
            <latexdraw:latexIncludes/>
            <latexdraw:displayXScale>true</latexdraw:displayXScale>
            <latexdraw:displayYScale>true</latexdraw:displayYScale>
            <latexdraw:unit>CM</latexdraw:unit>
            <latexdraw:zoom>2.3499999999999996</latexdraw:zoom>
            <latexdraw:magneticGridStyle>CUSTOMISED</latexdraw:magneticGridStyle>
            <latexdraw:gridGap>20</latexdraw:gridGap>
            <latexdraw:magneticGrid>false</latexdraw:magneticGrid>
            <latexdraw:version>3.3.8</latexdraw:version>
            <latexdraw:size>
                <latexdraw:width>1853</latexdraw:width>
                <latexdraw:height>1055</latexdraw:height>
            </latexdraw:size>
            <latexdraw:position>
                <latexdraw:x>1987.0</latexdraw:x>
                <latexdraw:y>25.0</latexdraw:y>
            </latexdraw:position>
        </latexdraw:metadata>
    </metadata>
</svg>
