<?xml version="1.1" encoding="UTF-8"?>
<svg xmlns="http://www.w3.org/2000/svg"
    xmlns:latexdraw="http://latexdraw.sourceforge.net/namespaces/latexdraw"
    version="1.1" baseProfile="full">
    <g>
        <g latexdraw:type="joinedLines" id="id740156166">
            <polyline
                points="200.0,100.0 200.0,120.0 220.0,120.0 220.0,100.0 220.0,120.0 240.0,120.0 240.0,100.0 240.0,120.0 260.0,120.0 260.0,100.0 260.0,120.0 280.0,120.0 280.0,100.0 280.0,120.0 300.0,120.0 300.0,100.0 300.0,120.0 320.0,120.0 320.0,100.0 320.0,120.0 340.0,120.0 340.0,100.0 340.0,120.0 360.0,120.0 360.0,100.0 360.0,120.0 380.0,120.0 380.0,100.0 380.0,120.0 400.0,120.0 400.0,100.0 400.0,120.0 420.0,120.0 420.0,120.0 420.0,100.0 420.0,120.0 440.0,120.0 440.0,100.0 440.0,120.0 460.0,120.0 460.0,100.0 460.0,120.0 "
                stroke-width="2.0" stroke="black" fill="none" latexdraw:rotationAngle="0.0"/>
        </g>
        <g latexdraw:type="rectangle" id="id555731406">
            <rect x="301.0" y="92.0" width="58.0" height="18.0"
                latexdraw:borderPos="outer" stroke-width="2.0"
                stroke="black" fill="url(#pattern555731406)"/>
        </g>
        <g latexdraw:type="rectangle" id="id338374227">
            <rect x="261.0" y="101.0" width="58.0" height="18.0"
                latexdraw:borderPos="outer" stroke-width="2.0"
                stroke="black" fill="url(#pattern338374227)"/>
        </g>
    </g>
    <defs>
        <pattern latexdraw:type="crosshatch*"
            latexdraw:rotationAngle="0.0"
            latexdraw:size="7.055555555555555"
            patternUnits="userSpaceOnUse" id="pattern555731406" x="0"
            y="0" width="360" height="111">
            <rect width="360" height="111" fill="#3333ff" stroke="none"/>
            <g stroke="black" stroke-width="1.4111111111111112" stroke-dasharray="none">
                <path d="M 300.0 91.0 L 300.0 111.0 M 308.46666666666664 91.0 L 308.46666666666664 111.0 M 316.9333333333333 91.0 L 316.9333333333333 111.0 M 325.3999999999999 91.0 L 325.3999999999999 111.0 M 333.86666666666656 91.0 L 333.86666666666656 111.0 M 342.3333333333332 91.0 L 342.3333333333332 111.0 M 350.79999999999984 91.0 L 350.79999999999984 111.0 M 359.2666666666665 91.0 L 359.2666666666665 111.0 M 300.0 91.0 L 360.0 91.0 M 300.0 99.46666666666667 L 360.0 99.46666666666667 M 300.0 107.93333333333334 L 360.0 107.93333333333334 "/>
            </g>
        </pattern>
        <pattern latexdraw:type="crosshatch*"
            latexdraw:rotationAngle="0.0"
            latexdraw:size="7.055555555555555"
            patternUnits="userSpaceOnUse" id="pattern338374227" x="0"
            y="0" width="320" height="120">
            <rect width="320" height="120" fill="#cc0033" stroke="none"/>
            <g stroke="black" stroke-width="1.4111111111111112" stroke-dasharray="none">
                <path d="M 260.0 100.0 L 260.0 120.0 M 268.46666666666664 100.0 L 268.46666666666664 120.0 M 276.9333333333333 100.0 L 276.9333333333333 120.0 M 285.3999999999999 100.0 L 285.3999999999999 120.0 M 293.86666666666656 100.0 L 293.86666666666656 120.0 M 302.3333333333332 100.0 L 302.3333333333332 120.0 M 310.79999999999984 100.0 L 310.79999999999984 120.0 M 319.2666666666665 100.0 L 319.2666666666665 120.0 M 260.0 100.0 L 320.0 100.0 M 260.0 108.46666666666667 L 320.0 108.46666666666667 M 260.0 116.93333333333334 L 320.0 116.93333333333334 "/>
            </g>
        </pattern>
    </defs>
    <metadata>
        <latexdraw:metadata>
            <latexdraw:latexIncludes/>
            <latexdraw:displayXScale>true</latexdraw:displayXScale>
            <latexdraw:displayYScale>true</latexdraw:displayYScale>
            <latexdraw:unit>CM</latexdraw:unit>
            <latexdraw:zoom>1.0</latexdraw:zoom>
            <latexdraw:magneticGridStyle>CUSTOMISED</latexdraw:magneticGridStyle>
            <latexdraw:gridGap>20</latexdraw:gridGap>
            <latexdraw:magneticGrid>false</latexdraw:magneticGrid>
            <latexdraw:version>3.3.7</latexdraw:version>
            <latexdraw:size>
                <latexdraw:width>1280</latexdraw:width>
                <latexdraw:height>807</latexdraw:height>
            </latexdraw:size>
            <latexdraw:position>
                <latexdraw:x>0.0</latexdraw:x>
                <latexdraw:y>23.0</latexdraw:y>
            </latexdraw:position>
        </latexdraw:metadata>
    </metadata>
</svg>
