<?xml version="1.0" standalone="no"?>
<!DOCTYPE svg PUBLIC "-//W3C//DTD SVG 20010904//EN"
 "http://www.w3.org/TR/2001/REC-SVG-20010904/DTD/svg10.dtd">
<svg version="1.0" xmlns="http://www.w3.org/2000/svg"
 width="253.000000pt" height="221.000000pt" viewBox="0 0 253.000000 221.000000"
 preserveAspectRatio="xMidYMid meet">
<metadata>
Created by potrace 1.15, written by Peter Selinger 2001-2017
</metadata>
<g transform="translate(0.000000,221.000000) scale(0.100000,-0.100000)"
fill="#000000" stroke="none">
<path d="M1281 2080 c-161 -65 -303 -128 -316 -140 -18 -17 -24 -35 -27 -85
-2 -35 -6 -67 -9 -70 -3 -3 -49 13 -102 35 -53 22 -105 40 -114 40 -23 0 -503
-191 -537 -213 l-26 -17 0 -710 0 -710 22 -13 c60 -38 2083 -65 2146 -29 l22
13 0 863 c0 809 -1 864 -17 879 -10 8 -162 74 -338 146 -257 106 -328 131
-365 130 -33 -1 -123 -32 -339 -119z m939 -213 c37 -18 47 -29 54 -59 5 -21 7
-40 5 -43 -3 -2 -132 41 -287 97 l-282 101 0 58 0 58 233 -95 c127 -52 252
-105 277 -117z m-231 -112 c146 -53 272 -102 280 -110 9 -9 11 -24 7 -48 l-6
-35 -40 14 c-22 8 -137 43 -257 79 -120 37 -228 73 -240 81 -19 12 -23 24 -23
64 0 28 3 50 6 50 4 0 127 -43 273 -95z m-59 -194 c107 -32 227 -69 266 -80
l72 -21 4 -43 c3 -23 3 -44 1 -46 -4 -5 -46 5 -348 83 l-210 54 -3 61 c-2 46
0 60 10 56 7 -2 101 -31 208 -64z m62 -228 c242 -63 261 -69 274 -95 15 -30
19 -68 6 -68 -4 0 -131 25 -282 55 -151 30 -275 55 -277 55 -2 0 -3 27 -3 60
0 37 4 60 11 60 6 0 128 -30 271 -67z m271 -284 c18 -22 23 -64 8 -73 -8 -5
-519 69 -548 79 -13 4 -19 106 -8 117 3 3 124 -19 268 -48 217 -44 265 -57
280 -75z m-409 -115 c49 -8 161 -26 249 -39 96 -15 164 -29 169 -37 4 -7 6
-22 3 -33 -2 -11 -5 -27 -5 -35 0 -18 7 -19 -314 16 -126 13 -233 27 -237 30
-5 3 -9 30 -9 60 0 52 1 54 28 54 15 0 67 -7 116 -16z m156 -234 c124 -12 234
-26 246 -30 17 -7 21 -16 19 -47 l-3 -38 -73 -2 c-41 -2 -166 3 -279 10 l-205
12 -3 54 c-3 60 7 74 48 67 14 -2 126 -14 250 -26z m140 -219 l115 -6 3 -48 3
-47 -278 2 -278 3 -3 44 c-6 76 -11 74 166 66 86 -4 209 -10 272 -14z"/>
</g>
</svg>
