<?xml version="1.1" encoding="UTF-8"?>
<svg xmlns="http://www.w3.org/2000/svg"
    xmlns:latexdraw="http://latexdraw.sourceforge.net/namespaces/latexdraw"
    version="1.1" baseProfile="full">
    <g>
        <g latexdraw:type="joinedLines" id="id1820275828">
            <polyline points="180.0,220.0 400.0,220.0 "
                stroke-width="2.0" stroke="black"
                latexdraw:rotationAngle="0.0" marker-end="url(#arrow1-1820275828)"/>
        </g>
        <g latexdraw:type="joinedLines" id="id1317517407">
            <polyline
                points="180.0,180.0 260.0,180.0 260.0,140.0 320.0,140.0 320.0,180.0 400.0,180.0 400.0,180.0 "
                stroke-width="2.0" stroke="black" fill="none" latexdraw:rotationAngle="0.0"/>
        </g>
        <g latexdraw:type="joinedLines" id="id1197644897">
            <polyline
                points="180.0,120.0 180.0,60.0 220.0,60.0 220.0,120.0 400.0,120.0 400.0,120.0 "
                stroke-width="2.0" stroke="black" fill="none" latexdraw:rotationAngle="0.0"/>
        </g>
        <g latexdraw:type="text" id="id934785405" fill="black" latexdraw:position="bl">
            <text x="151.0" y="120.0">A</text>
        </g>
        <g latexdraw:type="text" id="id50786505" fill="black" latexdraw:position="bl">
            <text x="151.0" y="179.0">B</text>
        </g>
        <g latexdraw:type="text" id="id297911050" fill="black" latexdraw:position="bl">
            <text x="262.0" y="246.0">Time</text>
        </g>
        <g latexdraw:type="joinedLines" id="id1110307289">
            <polyline
                points="180.0,220.0 180.0,206.0 180.0,220.0 200.0,220.0 200.0,206.0 200.0,220.0 220.0,220.0 220.0,206.0 220.0,220.0 240.0,220.0 240.0,220.0 240.0,206.0 240.0,220.0 260.0,220.0 260.0,206.0 260.0,220.0 280.0,220.0 280.0,206.0 280.0,220.0 300.0,220.0 300.0,206.0 300.0,220.0 320.0,220.0 320.0,206.0 320.0,220.0 340.0,220.0 340.0,206.0 340.0,220.0 360.0,220.0 360.0,220.0 360.0,206.0 360.0,220.0 380.0,220.0 380.0,206.0 380.0,206.0 "
                stroke-width="1.0" stroke="black" fill="none" latexdraw:rotationAngle="0.0"/>
        </g>
    </g>
    <defs>
        <marker overflow="visible" orient="auto" id="arrow1-1820275828">
            <path
                d="M 0.0 0.0 L -4.652083333333334 1.6614583333333335 L -4.652083333333334 0.0 L -4.652083333333334 -1.6614583333333335 z "
                latexdraw:arrSizeNum="2.0" fill="black"/>
        </marker>
    </defs>
    <metadata>
        <latexdraw:metadata>
            <latexdraw:latexIncludes/>
            <latexdraw:displayXScale>true</latexdraw:displayXScale>
            <latexdraw:displayYScale>true</latexdraw:displayYScale>
            <latexdraw:unit>CM</latexdraw:unit>
            <latexdraw:zoom>1.0</latexdraw:zoom>
            <latexdraw:magneticGridStyle>CUSTOMISED</latexdraw:magneticGridStyle>
            <latexdraw:gridGap>20</latexdraw:gridGap>
            <latexdraw:magneticGrid>false</latexdraw:magneticGrid>
            <latexdraw:version>3.3.7</latexdraw:version>
            <latexdraw:size>
                <latexdraw:width>1280</latexdraw:width>
                <latexdraw:height>807</latexdraw:height>
            </latexdraw:size>
            <latexdraw:position>
                <latexdraw:x>0.0</latexdraw:x>
                <latexdraw:y>23.0</latexdraw:y>
            </latexdraw:position>
        </latexdraw:metadata>
    </metadata>
</svg>
